  0
SECTION
  2
BLOCKS
  0
ENDSEC
  0
SECTION
  2
ENTITIES
  0
LINE
  8
0
 10
-71.0891
 20
-59.1409
 11
-71.0692
 21
-59.1662
  0
LINE
  8
0
 10
-71.0692
 20
-59.1662
 11
-63.0945
 21
-69.3047
  0
LINE
  8
0
 10
-63.0945
 20
-69.3047
 11
-60.5588
 21
-72.5284
  0
LINE
  8
0
 10
-60.5588
 20
-72.5284
 11
-58.9054
 21
-76.8099
  0
LINE
  8
0
 10
-58.9054
 20
-76.8099
 11
-58.8072
 21
-76.9538
  0
LINE
  8
0
 10
-58.8072
 20
-76.9538
 11
-58.8059
 21
-76.9554
  0
LINE
  8
0
 10
-58.8059
 20
-76.9554
 11
-58.7428
 21
-77.0309
  0
LINE
  8
0
 10
-58.7428
 20
-77.0309
 11
-58.7428
 21
-77.0309
  0
LINE
  8
0
 10
-58.7428
 20
-77.0309
 11
-58.5103
 21
-77.3089
  0
LINE
  8
0
 10
-58.5103
 20
-77.3089
 11
-47.7931
 21
-90.1267
  0
LINE
  8
0
 10
-47.7931
 20
-90.1267
 11
-47.7931
 21
-90.1267
  0
LINE
  8
0
 10
-47.7931
 20
-90.1267
 11
-47.7287
 21
-90.2037
  0
LINE
  8
0
 10
-47.7287
 20
-90.2037
 11
-43.7777
 21
-91.4486
  0
LINE
  8
0
 10
-43.7777
 20
-91.4486
 11
-40.4313
 21
-92.2369
  0
LINE
  8
0
 10
-40.4313
 20
-92.2369
 11
-39.1269
 21
-92.5441
  0
LINE
  8
0
 10
-39.1269
 20
-92.5441
 11
-39.0691
 21
-92.5036
  0
LINE
  8
0
 10
-39.0691
 20
-92.5036
 11
-37.3443
 21
-91.2959
  0
LINE
  8
0
 10
-37.3443
 20
-91.2959
 11
-27.5142
 21
-84.4128
  0
LINE
  8
0
 10
-27.5142
 20
-84.4128
 11
-27.1247
 21
-84.2877
  0
LINE
  8
0
 10
-27.1247
 20
-84.2877
 11
-26.7752
 21
-84.1754
  0
LINE
  8
0
 10
-26.7752
 20
-84.1754
 11
-26.7301
 21
-84.1544
  0
LINE
  8
0
 10
-26.7301
 20
-84.1544
 11
-26.7301
 21
-84.1544
  0
LINE
  8
0
 10
-26.7301
 20
-84.1544
 11
-26.6918
 21
-84.1365
  0
LINE
  8
0
 10
-26.6918
 20
-84.1365
 11
-26.6918
 21
-84.1365
  0
LINE
  8
0
 10
-26.6918
 20
-84.1365
 11
-19.0527
 21
-80.5743
  0
LINE
  8
0
 10
-19.0527
 20
-80.5743
 11
-12.4801
 21
-77.5095
  0
LINE
  8
0
 10
-12.4801
 20
-77.5095
 11
-12.4801
 21
-77.5095
  0
LINE
  8
0
 10
-12.4801
 20
-77.5095
 11
-12.426
 21
-77.4842
  0
LINE
  8
0
 10
-12.426
 20
-77.4842
 11
-11.7116
 21
-76.6541
  0
LINE
  8
0
 10
-11.7116
 20
-76.6541
 11
-11.7116
 21
-76.654
  0
LINE
  8
0
 10
-11.7116
 20
-76.654
 11
-11.3245
 21
-76.2042
  0
LINE
  8
0
 10
-11.3245
 20
-76.2042
 11
-9.88663
 21
-70.0123
  0
LINE
  8
0
 10
-9.88663
 20
-70.0123
 11
-6.8126
 21
-56.7747
  0
LINE
  8
0
 10
-6.8126
 20
-56.7747
 11
-0.252948
 21
-57.5166
  0
LINE
  8
0
 10
-0.252948
 20
-57.5166
 11
14.799
 21
-59.2189
  0
LINE
  8
0
 10
14.799
 20
-59.2189
 11
22.2079
 21
-59.2189
  0
LINE
  8
0
 10
22.2079
 20
-59.2189
 11
22.2485
 21
-59.2189
  0
LINE
  8
0
 10
22.2485
 20
-59.2189
 11
35.1846
 21
-59.2189
  0
LINE
  8
0
 10
35.1846
 20
-59.2189
 11
36.7421
 21
-54.9713
  0
LINE
  8
0
 10
36.7421
 20
-54.9713
 11
38.2976
 21
-50.7291
  0
LINE
  8
0
 10
38.2976
 20
-50.7291
 11
43.8188
 21
-50.7291
  0
LINE
  8
0
 10
43.8188
 20
-50.7291
 11
51.7992
 21
-50.7291
  0
LINE
  8
0
 10
51.7992
 20
-50.7291
 11
53.8275
 21
-50.7291
  0
LINE
  8
0
 10
53.8275
 20
-50.7291
 11
72.8278
 21
-50.7291
  0
LINE
  8
0
 10
72.8278
 20
-50.7291
 11
75.1639
 21
-48.4726
  0
LINE
  8
0
 10
75.1639
 20
-48.4726
 11
75.2516
 21
-48.57
  0
LINE
  8
0
 10
75.2516
 20
-48.57
 11
75.9028
 21
-49.0431
  0
LINE
  8
0
 10
75.9028
 20
-49.0431
 11
76.638
 21
-49.3705
  0
LINE
  8
0
 10
76.638
 20
-49.3705
 11
77.4253
 21
-49.5378
  0
LINE
  8
0
 10
77.4253
 20
-49.5378
 11
78.2302
 21
-49.5378
  0
LINE
  8
0
 10
78.2302
 20
-49.5378
 11
79.0175
 21
-49.3705
  0
LINE
  8
0
 10
79.0175
 20
-49.3705
 11
79.7528
 21
-49.0431
  0
LINE
  8
0
 10
79.7528
 20
-49.0431
 11
80.4039
 21
-48.57
  0
LINE
  8
0
 10
80.4039
 20
-48.57
 11
80.9425
 21
-47.9719
  0
LINE
  8
0
 10
80.9425
 20
-47.9719
 11
81.3449
 21
-47.2748
  0
LINE
  8
0
 10
81.3449
 20
-47.2748
 11
81.5936
 21
-46.5094
  0
LINE
  8
0
 10
81.5936
 20
-46.5094
 11
81.6778
 21
-45.7089
  0
LINE
  8
0
 10
81.6778
 20
-45.7089
 11
81.5936
 21
-44.9084
  0
LINE
  8
0
 10
81.5936
 20
-44.9084
 11
81.3449
 21
-44.143
  0
LINE
  8
0
 10
81.3449
 20
-44.143
 11
80.9425
 21
-43.4459
  0
LINE
  8
0
 10
80.9425
 20
-43.4459
 11
80.4039
 21
-42.8478
  0
LINE
  8
0
 10
80.4039
 20
-42.8478
 11
79.8278
 21
-42.4292
  0
LINE
  8
0
 10
79.8278
 20
-42.4292
 11
79.8278
 21
-30.6219
  0
LINE
  8
0
 10
79.8278
 20
-30.6219
 11
79.8278
 21
-27.3727
  0
LINE
  8
0
 10
79.8278
 20
-27.3727
 11
79.8278
 21
-21.5288
  0
LINE
  8
0
 10
79.8278
 20
-21.5288
 11
79.8278
 21
-2.47118
  0
LINE
  8
0
 10
79.8278
 20
-2.47118
 11
79.8278
 21
3.37271
  0
LINE
  8
0
 10
79.8278
 20
3.37271
 11
79.8278
 21
6.62194
  0
LINE
  8
0
 10
79.8278
 20
6.62194
 11
79.8278
 21
19.9102
  0
LINE
  8
0
 10
79.8278
 20
19.9102
 11
79.8278
 21
22.4996
  0
LINE
  8
0
 10
79.8278
 20
22.4996
 11
79.8278
 21
22.5628
  0
LINE
  8
0
 10
79.8278
 20
22.5628
 11
79.8278
 21
26.3031
  0
LINE
  8
0
 10
79.8278
 20
26.3031
 11
79.8278
 21
33.4934
  0
LINE
  8
0
 10
79.8278
 20
33.4934
 11
79.8278
 21
33.5573
  0
LINE
  8
0
 10
79.8278
 20
33.5573
 11
79.8278
 21
37.4292
  0
LINE
  8
0
 10
79.8278
 20
37.4292
 11
80.4039
 21
37.8478
  0
LINE
  8
0
 10
80.4039
 20
37.8478
 11
80.9425
 21
38.4459
  0
LINE
  8
0
 10
80.9425
 20
38.4459
 11
81.3449
 21
39.143
  0
LINE
  8
0
 10
81.3449
 20
39.143
 11
81.5936
 21
39.9084
  0
LINE
  8
0
 10
81.5936
 20
39.9084
 11
81.6778
 21
40.7089
  0
LINE
  8
0
 10
81.6778
 20
40.7089
 11
81.5936
 21
41.5094
  0
LINE
  8
0
 10
81.5936
 20
41.5094
 11
81.3449
 21
42.2748
  0
LINE
  8
0
 10
81.3449
 20
42.2748
 11
80.9425
 21
42.9719
  0
LINE
  8
0
 10
80.9425
 20
42.9719
 11
80.4039
 21
43.57
  0
LINE
  8
0
 10
80.4039
 20
43.57
 11
79.7528
 21
44.0431
  0
LINE
  8
0
 10
79.7528
 20
44.0431
 11
79.0175
 21
44.3705
  0
LINE
  8
0
 10
79.0175
 20
44.3705
 11
78.2302
 21
44.5378
  0
LINE
  8
0
 10
78.2302
 20
44.5378
 11
77.4253
 21
44.5378
  0
LINE
  8
0
 10
77.4253
 20
44.5378
 11
76.638
 21
44.3705
  0
LINE
  8
0
 10
76.638
 20
44.3705
 11
76.2938
 21
44.2172
  0
LINE
  8
0
 10
76.2938
 20
44.2172
 11
75.332
 21
45.0501
  0
LINE
  8
0
 10
75.332
 20
45.0501
 11
72.8278
 21
47.2189
  0
LINE
  8
0
 10
72.8278
 20
47.2189
 11
53.7479
 21
47.2189
  0
LINE
  8
0
 10
53.7479
 20
47.2189
 11
52.9017
 21
47.2189
  0
LINE
  8
0
 10
52.9017
 20
47.2189
 11
41.2691
 21
47.2189
  0
LINE
  8
0
 10
41.2691
 20
47.2189
 11
35.9348
 21
47.2189
  0
LINE
  8
0
 10
35.9348
 20
47.2189
 11
34.4341
 21
51.5097
  0
LINE
  8
0
 10
34.4341
 20
51.5097
 11
31.7377
 21
59.2189
  0
LINE
  8
0
 10
31.7377
 20
59.2189
 11
20.8557
 21
59.2189
  0
LINE
  8
0
 10
20.8557
 20
59.2189
 11
14.8975
 21
59.2189
  0
LINE
  8
0
 10
14.8975
 20
59.2189
 11
12.286
 21
61.1265
  0
LINE
  8
0
 10
12.286
 20
61.1265
 11
11.0369
 21
62.0389
  0
LINE
  8
0
 10
11.0369
 20
62.0389
 11
0.533175
 21
62.0389
  0
LINE
  8
0
 10
0.533175
 20
62.0389
 11
-5.57702
 21
62.0389
  0
LINE
  8
0
 10
-5.57702
 20
62.0389
 11
-6.57953
 21
60.1113
  0
LINE
  8
0
 10
-6.57953
 20
60.1113
 11
-7.04369
 21
59.2189
  0
LINE
  8
0
 10
-7.04369
 20
59.2189
 11
-18.7077
 21
59.2189
  0
LINE
  8
0
 10
-18.7077
 20
59.2189
 11
-23.0903
 21
59.2189
  0
LINE
  8
0
 10
-23.0903
 20
59.2189
 11
-25.039
 21
59.2189
  0
LINE
  8
0
 10
-25.039
 20
59.2189
 11
-25.0616
 21
59.2189
  0
LINE
  8
0
 10
-25.0616
 20
59.2189
 11
-25.6402
 21
59.2189
  0
LINE
  8
0
 10
-25.6402
 20
59.2189
 11
-37.5775
 21
59.2189
  0
LINE
  8
0
 10
-37.5775
 20
59.2189
 11
-41.1589
 21
59.2189
  0
LINE
  8
0
 10
-41.1589
 20
59.2189
 11
-42.238
 21
58.8716
  0
LINE
  8
0
 10
-42.238
 20
58.8716
 11
-45.8581
 21
57.7067
  0
LINE
  8
0
 10
-45.8581
 20
57.7067
 11
-52.8581
 21
50.7067
  0
LINE
  8
0
 10
-52.8581
 20
50.7067
 11
-55.658
 21
39.2316
  0
LINE
  8
0
 10
-55.658
 20
39.2316
 11
-56.4926
 21
35.8111
  0
LINE
  8
0
 10
-56.4926
 20
35.8111
 11
-56.755
 21
34.3121
  0
LINE
  8
0
 10
-56.755
 20
34.3121
 11
-57.3832
 21
30.7235
  0
LINE
  8
0
 10
-57.3832
 20
30.7235
 11
-58.0115
 21
25.1754
  0
LINE
  8
0
 10
-58.0115
 20
25.1754
 11
-59.2646
 21
14.1096
  0
LINE
  8
0
 10
-59.2646
 20
14.1096
 11
-59.4669
 21
10.4732
  0
LINE
  8
0
 10
-59.4669
 20
10.4732
 11
-59.5683
 21
8.65
  0
LINE
  8
0
 10
-59.5683
 20
8.65
 11
-59.5683
 21
-8.65
  0
LINE
  8
0
 10
-59.5683
 20
-8.65
 11
-59.4669
 21
-10.4732
  0
LINE
  8
0
 10
-59.4669
 20
-10.4732
 11
-59.2646
 21
-14.1096
  0
LINE
  8
0
 10
-59.2646
 20
-14.1096
 11
-58.0115
 21
-25.1754
  0
LINE
  8
0
 10
-58.0115
 20
-25.1754
 11
-57.3907
 21
-30.6574
  0
LINE
  8
0
 10
-57.3907
 20
-30.6574
 11
-58.3979
 21
-35.2024
  0
LINE
  8
0
 10
-58.3979
 20
-35.2024
 11
-59.9829
 21
-42.3552
  0
LINE
  8
0
 10
-59.9829
 20
-42.3552
 11
-64.1822
 21
-45.2956
  0
LINE
  8
0
 10
-64.1822
 20
-45.2956
 11
-69.0247
 21
-48.6863
  0
LINE
  8
0
 10
-69.0247
 20
-48.6863
 11
-69.0247
 21
-48.6864
  0
LINE
  8
0
 10
-69.0247
 20
-48.6864
 11
-69.05
 21
-48.7041
  0
LINE
  8
0
 10
-69.05
 20
-48.7041
 11
-69.5917
 21
-49.2693
  0
LINE
  8
0
 10
-69.5917
 20
-49.2693
 11
-70.537
 21
-50.2557
  0
LINE
  8
0
 10
-70.537
 20
-50.2557
 11
-70.9105
 21
-56.2659
  0
LINE
  8
0
 10
-70.9105
 20
-56.2659
 11
-71.0891
 21
-59.1409
  0
LINE
  8
0
 10
-68.0817
 20
-56.6461
 11
-68.0817
 21
-56.6461
  0
LINE
  8
0
 10
-68.0817
 20
-56.6461
 11
-67.8289
 21
-52.5776
  0
LINE
  8
0
 10
-67.8289
 20
-52.5776
 11
-67.7205
 21
-50.8331
  0
LINE
  8
0
 10
-67.7205
 20
-50.8331
 11
-63.6545
 21
-47.9861
  0
LINE
  8
0
 10
-63.6545
 20
-47.9861
 11
-58.3141
 21
-44.2467
  0
LINE
  8
0
 10
-58.3141
 20
-44.2467
 11
-58.1425
 21
-44.7748
  0
LINE
  8
0
 10
-58.1425
 20
-44.7748
 11
-57.7401
 21
-45.4719
  0
LINE
  8
0
 10
-57.7401
 20
-45.4719
 11
-57.2015
 21
-46.07
  0
LINE
  8
0
 10
-57.2015
 20
-46.07
 11
-56.5504
 21
-46.5431
  0
LINE
  8
0
 10
-56.5504
 20
-46.5431
 11
-55.8151
 21
-46.8705
  0
LINE
  8
0
 10
-55.8151
 20
-46.8705
 11
-55.0278
 21
-47.0378
  0
LINE
  8
0
 10
-55.0278
 20
-47.0378
 11
-54.2229
 21
-47.0378
  0
LINE
  8
0
 10
-54.2229
 20
-47.0378
 11
-53.4356
 21
-46.8705
  0
LINE
  8
0
 10
-53.4356
 20
-46.8705
 11
-52.7004
 21
-46.5431
  0
LINE
  8
0
 10
-52.7004
 20
-46.5431
 11
-52.0492
 21
-46.07
  0
LINE
  8
0
 10
-52.0492
 20
-46.07
 11
-51.5106
 21
-45.4719
  0
LINE
  8
0
 10
-51.5106
 20
-45.4719
 11
-51.1082
 21
-44.7748
  0
LINE
  8
0
 10
-51.1082
 20
-44.7748
 11
-50.8595
 21
-44.0094
  0
LINE
  8
0
 10
-50.8595
 20
-44.0094
 11
-50.7754
 21
-43.2089
  0
LINE
  8
0
 10
-50.7754
 20
-43.2089
 11
-50.8595
 21
-42.4084
  0
LINE
  8
0
 10
-50.8595
 20
-42.4084
 11
-51.1082
 21
-41.643
  0
LINE
  8
0
 10
-51.1082
 20
-41.643
 11
-51.5106
 21
-40.9459
  0
LINE
  8
0
 10
-51.5106
 20
-40.9459
 11
-52.0492
 21
-40.3478
  0
LINE
  8
0
 10
-52.0492
 20
-40.3478
 11
-52.7004
 21
-39.8747
  0
LINE
  8
0
 10
-52.7004
 20
-39.8747
 11
-53.4356
 21
-39.5473
  0
LINE
  8
0
 10
-53.4356
 20
-39.5473
 11
-54.2229
 21
-39.38
  0
LINE
  8
0
 10
-54.2229
 20
-39.38
 11
-55.0278
 21
-39.38
  0
LINE
  8
0
 10
-55.0278
 20
-39.38
 11
-55.8151
 21
-39.5473
  0
LINE
  8
0
 10
-55.8151
 20
-39.5473
 11
-56.4751
 21
-39.8412
  0
LINE
  8
0
 10
-56.4751
 20
-39.8412
 11
-56.4369
 21
-39.5486
  0
LINE
  8
0
 10
-56.4369
 20
-39.5486
 11
-55.2832
 21
-30.7235
  0
LINE
  8
0
 10
-55.2832
 20
-30.7235
 11
-55.2832
 21
-30.6235
  0
LINE
  8
0
 10
-55.2832
 20
-30.6235
 11
-56.6682
 21
-18.3929
  0
LINE
  8
0
 10
-56.6682
 20
-18.3929
 11
-57.1646
 21
-14.0096
  0
LINE
  8
0
 10
-57.1646
 20
-14.0096
 11
-57.2559
 21
-12.3682
  0
LINE
  8
0
 10
-57.2559
 20
-12.3682
 11
-57.4683
 21
-8.54999
  0
LINE
  8
0
 10
-57.4683
 20
-8.54999
 11
-57.4683
 21
8.54999
  0
LINE
  8
0
 10
-57.4683
 20
8.54999
 11
-57.2559
 21
12.3682
  0
LINE
  8
0
 10
-57.2559
 20
12.3682
 11
-57.1646
 21
14.0096
  0
LINE
  8
0
 10
-57.1646
 20
14.0096
 11
-56.6682
 21
18.3929
  0
LINE
  8
0
 10
-56.6682
 20
18.3929
 11
-55.2832
 21
30.6235
  0
LINE
  8
0
 10
-55.2832
 20
30.6235
 11
-55.0594
 21
31.902
  0
LINE
  8
0
 10
-55.0594
 20
31.902
 11
-54.3926
 21
35.7111
  0
LINE
  8
0
 10
-54.3926
 20
35.7111
 11
-53.6276
 21
38.8462
  0
LINE
  8
0
 10
-53.6276
 20
38.8462
 11
-50.7581
 21
50.6067
  0
LINE
  8
0
 10
-50.7581
 20
50.6067
 11
-47.3954
 21
53.9694
  0
LINE
  8
0
 10
-47.3954
 20
53.9694
 11
-47.4754
 21
53.2089
  0
LINE
  8
0
 10
-47.4754
 20
53.2089
 11
-47.3912
 21
52.4084
  0
LINE
  8
0
 10
-47.3912
 20
52.4084
 11
-47.1425
 21
51.643
  0
LINE
  8
0
 10
-47.1425
 20
51.643
 11
-46.7401
 21
50.9459
  0
LINE
  8
0
 10
-46.7401
 20
50.9459
 11
-46.2015
 21
50.3478
  0
LINE
  8
0
 10
-46.2015
 20
50.3478
 11
-45.5504
 21
49.8747
  0
LINE
  8
0
 10
-45.5504
 20
49.8747
 11
-44.8151
 21
49.5473
  0
LINE
  8
0
 10
-44.8151
 20
49.5473
 11
-44.0278
 21
49.38
  0
LINE
  8
0
 10
-44.0278
 20
49.38
 11
-43.2229
 21
49.38
  0
LINE
  8
0
 10
-43.2229
 20
49.38
 11
-42.4356
 21
49.5473
  0
LINE
  8
0
 10
-42.4356
 20
49.5473
 11
-41.7004
 21
49.8747
  0
LINE
  8
0
 10
-41.7004
 20
49.8747
 11
-41.0492
 21
50.3478
  0
LINE
  8
0
 10
-41.0492
 20
50.3478
 11
-40.5106
 21
50.9459
  0
LINE
  8
0
 10
-40.5106
 20
50.9459
 11
-40.1082
 21
51.643
  0
LINE
  8
0
 10
-40.1082
 20
51.643
 11
-39.8595
 21
52.4084
  0
LINE
  8
0
 10
-39.8595
 20
52.4084
 11
-39.7754
 21
53.2089
  0
LINE
  8
0
 10
-39.7754
 20
53.2089
 11
-39.8595
 21
54.0094
  0
LINE
  8
0
 10
-39.8595
 20
54.0094
 11
-40.1082
 21
54.7748
  0
LINE
  8
0
 10
-40.1082
 20
54.7748
 11
-40.4763
 21
55.4124
  0
LINE
  8
0
 10
-40.4763
 20
55.4124
 11
-40.1387
 21
55.4002
  0
LINE
  8
0
 10
-40.1387
 20
55.4002
 11
-27.4973
 21
55.4002
  0
LINE
  8
0
 10
-27.4973
 20
55.4002
 11
-24.57
 21
55.4002
  0
LINE
  8
0
 10
-24.57
 20
55.4002
 11
-22.728
 21
55.4002
  0
LINE
  8
0
 10
-22.728
 20
55.4002
 11
-22.2112
 21
55.4002
  0
LINE
  8
0
 10
-22.2112
 20
55.4002
 11
-9.73438
 21
55.4002
  0
LINE
  8
0
 10
-9.73438
 20
55.4002
 11
-9.71611
 21
55.4002
  0
LINE
  8
0
 10
-9.71611
 20
55.4002
 11
-6.14815
 21
55.4002
  0
LINE
  8
0
 10
-6.14815
 20
55.4002
 11
-6.14815
 21
55.4002
  0
LINE
  8
0
 10
-6.14815
 20
55.4002
 11
-6.12404
 21
55.4002
  0
LINE
  8
0
 10
-6.12404
 20
55.4002
 11
-5.74969
 21
56.2325
  0
LINE
  8
0
 10
-5.74969
 20
56.2325
 11
-4.85561
 21
58.2202
  0
LINE
  8
0
 10
-4.85561
 20
58.2202
 11
6.76219
 21
58.2202
  0
LINE
  8
0
 10
6.76219
 20
58.2202
 11
11.5651
 21
58.2202
  0
LINE
  8
0
 10
11.5651
 20
58.2202
 11
13.981
 21
56.3553
  0
LINE
  8
0
 10
13.981
 20
56.3553
 11
15.2182
 21
55.4002
  0
LINE
  8
0
 10
15.2182
 20
55.4002
 11
27.0672
 21
55.4002
  0
LINE
  8
0
 10
27.0672
 20
55.4002
 11
32.0584
 21
55.4002
  0
LINE
  8
0
 10
32.0584
 20
55.4002
 11
33.1847
 21
52.0105
  0
LINE
  8
0
 10
33.1847
 20
52.0105
 11
36.0456
 21
43.4002
  0
LINE
  8
0
 10
36.0456
 20
43.4002
 11
48.34
 21
43.4002
  0
LINE
  8
0
 10
48.34
 20
43.4002
 11
53.1508
 21
43.4002
  0
LINE
  8
0
 10
53.1508
 20
43.4002
 11
54.9474
 21
43.4002
  0
LINE
  8
0
 10
54.9474
 20
43.4002
 11
55.7278
 21
43.4002
  0
LINE
  8
0
 10
55.7278
 20
43.4002
 11
72.7278
 21
43.4002
  0
LINE
  8
0
 10
72.7278
 20
43.4002
 11
74.2484
 21
42.0833
  0
LINE
  8
0
 10
74.2484
 20
42.0833
 11
74.0619
 21
41.5094
  0
LINE
  8
0
 10
74.0619
 20
41.5094
 11
73.9778
 21
40.7089
  0
LINE
  8
0
 10
73.9778
 20
40.7089
 11
74.0619
 21
39.9084
  0
LINE
  8
0
 10
74.0619
 20
39.9084
 11
74.3106
 21
39.143
  0
LINE
  8
0
 10
74.3106
 20
39.143
 11
74.713
 21
38.4459
  0
LINE
  8
0
 10
74.713
 20
38.4459
 11
75.2516
 21
37.8478
  0
LINE
  8
0
 10
75.2516
 20
37.8478
 11
75.9028
 21
37.3747
  0
LINE
  8
0
 10
75.9028
 20
37.3747
 11
76.638
 21
37.0473
  0
LINE
  8
0
 10
76.638
 20
37.0473
 11
77.4253
 21
36.88
  0
LINE
  8
0
 10
77.4253
 20
36.88
 11
77.7278
 21
36.88
  0
LINE
  8
0
 10
77.7278
 20
36.88
 11
77.7278
 21
29.0073
  0
LINE
  8
0
 10
77.7278
 20
29.0073
 11
77.7278
 21
24.2989
  0
LINE
  8
0
 10
77.7278
 20
24.2989
 11
77.7278
 21
21.2408
  0
LINE
  8
0
 10
77.7278
 20
21.2408
 11
77.7278
 21
18.866
  0
LINE
  8
0
 10
77.7278
 20
18.866
 11
77.7278
 21
10.3511
  0
LINE
  8
0
 10
77.7278
 20
10.3511
 11
77.7278
 21
2.37768
  0
LINE
  8
0
 10
77.7278
 20
2.37768
 11
77.7278
 21
0.128714
  0
LINE
  8
0
 10
77.7278
 20
0.128714
 11
77.7278
 21
-3.5
  0
LINE
  8
0
 10
77.7278
 20
-3.5
 11
77.7278
 21
-20.5
  0
LINE
  8
0
 10
77.7278
 20
-20.5
 11
77.7278
 21
-24.1287
  0
LINE
  8
0
 10
77.7278
 20
-24.1287
 11
77.7278
 21
-26.3777
  0
LINE
  8
0
 10
77.7278
 20
-26.3777
 11
77.7278
 21
-34.3511
  0
LINE
  8
0
 10
77.7278
 20
-34.3511
 11
77.7278
 21
-41.88
  0
LINE
  8
0
 10
77.7278
 20
-41.88
 11
77.4253
 21
-41.88
  0
LINE
  8
0
 10
77.4253
 20
-41.88
 11
76.638
 21
-42.0473
  0
LINE
  8
0
 10
76.638
 20
-42.0473
 11
75.9028
 21
-42.3747
  0
LINE
  8
0
 10
75.9028
 20
-42.3747
 11
75.2516
 21
-42.8478
  0
LINE
  8
0
 10
75.2516
 20
-42.8478
 11
74.713
 21
-43.4459
  0
LINE
  8
0
 10
74.713
 20
-43.4459
 11
74.3106
 21
-44.143
  0
LINE
  8
0
 10
74.3106
 20
-44.143
 11
74.0619
 21
-44.9084
  0
LINE
  8
0
 10
74.0619
 20
-44.9084
 11
73.9778
 21
-45.7089
  0
LINE
  8
0
 10
73.9778
 20
-45.7089
 11
74.0492
 21
-46.3889
  0
LINE
  8
0
 10
74.0492
 20
-46.3889
 11
72.7278
 21
-47.6654
  0
LINE
  8
0
 10
72.7278
 20
-47.6654
 11
55.7278
 21
-47.6654
  0
LINE
  8
0
 10
55.7278
 20
-47.6654
 11
54.057
 21
-47.6654
  0
LINE
  8
0
 10
54.057
 20
-47.6654
 11
52.0902
 21
-47.6654
  0
LINE
  8
0
 10
52.0902
 20
-47.6654
 11
44.8669
 21
-47.6654
  0
LINE
  8
0
 10
44.8669
 20
-47.6654
 11
35.0007
 21
-47.6654
  0
LINE
  8
0
 10
35.0007
 20
-47.6654
 11
34.8068
 21
-48.2615
  0
LINE
  8
0
 10
34.8068
 20
-48.2615
 11
34.664
 21
-48.7007
  0
LINE
  8
0
 10
34.664
 20
-48.7007
 11
34.6863
 21
-49.655
  0
LINE
  8
0
 10
34.6863
 20
-49.655
 11
34.7102
 21
-50.6801
  0
LINE
  8
0
 10
34.7102
 20
-50.6801
 11
34.7113
 21
-50.7291
  0
LINE
  8
0
 10
34.7113
 20
-50.7291
 11
34.7113
 21
-50.7291
  0
LINE
  8
0
 10
34.7113
 20
-50.7291
 11
34.7604
 21
-50.7291
  0
LINE
  8
0
 10
34.7604
 20
-50.7291
 11
36.3145
 21
-50.7291
  0
LINE
  8
0
 10
36.3145
 20
-50.7291
 11
35.7923
 21
-52.0889
  0
LINE
  8
0
 10
35.7923
 20
-52.0889
 11
34.5205
 21
-55.4002
  0
LINE
  8
0
 10
34.5205
 20
-55.4002
 11
28.7894
 21
-55.4002
  0
LINE
  8
0
 10
28.7894
 20
-55.4002
 11
15.3167
 21
-55.4002
  0
LINE
  8
0
 10
15.3167
 20
-55.4002
 11
-0.300314
 21
-54.1237
  0
LINE
  8
0
 10
-0.300314
 20
-54.1237
 11
-7.01357
 21
-53.575
  0
LINE
  8
0
 10
-7.01357
 20
-53.575
 11
-7.04171
 21
-53.5799
  0
LINE
  8
0
 10
-7.04171
 20
-53.5799
 11
-7.10869
 21
-53.5918
  0
LINE
  8
0
 10
-7.10869
 20
-53.5918
 11
-7.10869
 21
-53.5918
  0
LINE
  8
0
 10
-7.10869
 20
-53.5918
 11
-7.68695
 21
-54.3856
  0
LINE
  8
0
 10
-7.68695
 20
-54.3856
 11
-7.68697
 21
-54.3856
  0
LINE
  8
0
 10
-7.68697
 20
-54.3856
 11
-7.92992
 21
-54.7192
  0
LINE
  8
0
 10
-7.92992
 20
-54.7192
 11
-7.92992
 21
-54.7192
  0
LINE
  8
0
 10
-7.92992
 20
-54.7192
 11
-9.87179
 21
-62.0203
  0
LINE
  8
0
 10
-9.87179
 20
-62.0203
 11
-12.3057
 21
-71.1714
  0
LINE
  8
0
 10
-12.3057
 20
-71.1714
 11
-12.7969
 21
-70.6257
  0
LINE
  8
0
 10
-12.7969
 20
-70.6257
 11
-13.4481
 21
-70.1527
  0
LINE
  8
0
 10
-13.4481
 20
-70.1527
 11
-14.1834
 21
-69.8253
  0
LINE
  8
0
 10
-14.1834
 20
-69.8253
 11
-14.9707
 21
-69.6579
  0
LINE
  8
0
 10
-14.9707
 20
-69.6579
 11
-15.7755
 21
-69.6579
  0
LINE
  8
0
 10
-15.7755
 20
-69.6579
 11
-16.5628
 21
-69.8253
  0
LINE
  8
0
 10
-16.5628
 20
-69.8253
 11
-17.2981
 21
-70.1527
  0
LINE
  8
0
 10
-17.2981
 20
-70.1527
 11
-17.9493
 21
-70.6257
  0
LINE
  8
0
 10
-17.9493
 20
-70.6257
 11
-18.4878
 21
-71.2239
  0
LINE
  8
0
 10
-18.4878
 20
-71.2239
 11
-18.8902
 21
-71.9209
  0
LINE
  8
0
 10
-18.8902
 20
-71.9209
 11
-19.139
 21
-72.6864
  0
LINE
  8
0
 10
-19.139
 20
-72.6864
 11
-19.2231
 21
-73.4868
  0
LINE
  8
0
 10
-19.2231
 20
-73.4868
 11
-19.139
 21
-74.2873
  0
LINE
  8
0
 10
-19.139
 20
-74.2873
 11
-18.8902
 21
-75.0528
  0
LINE
  8
0
 10
-18.8902
 20
-75.0528
 11
-18.4878
 21
-75.7498
  0
LINE
  8
0
 10
-18.4878
 20
-75.7498
 11
-17.9493
 21
-76.348
  0
LINE
  8
0
 10
-17.9493
 20
-76.348
 11
-17.393
 21
-76.7521
  0
LINE
  8
0
 10
-17.393
 20
-76.7521
 11
-21.0069
 21
-78.4373
  0
LINE
  8
0
 10
-21.0069
 20
-78.4373
 11
-26.5935
 21
-81.0424
  0
LINE
  8
0
 10
-26.5935
 20
-81.0424
 11
-26.8562
 21
-81.072
  0
LINE
  8
0
 10
-26.8562
 20
-81.072
 11
-27.1623
 21
-81.1064
  0
LINE
  8
0
 10
-27.1623
 20
-81.1064
 11
-27.1928
 21
-81.1277
  0
LINE
  8
0
 10
-27.1928
 20
-81.1277
 11
-27.2303
 21
-81.154
  0
LINE
  8
0
 10
-27.2303
 20
-81.154
 11
-37.1159
 21
-88.076
  0
LINE
  8
0
 10
-37.1159
 20
-88.076
 11
-40.2954
 21
-88.6732
  0
LINE
  8
0
 10
-40.2954
 20
-88.6732
 11
-44.4982
 21
-87.5186
  0
LINE
  8
0
 10
-44.4982
 20
-87.5186
 11
-49.2973
 21
-81.6584
  0
LINE
  8
0
 10
-49.2973
 20
-81.6584
 11
-55.3114
 21
-74.3147
  0
LINE
  8
0
 10
-55.3114
 20
-74.3147
 11
-55.8098
 21
-73.3457
  0
LINE
  8
0
 10
-55.8098
 20
-73.3457
 11
-56.9882
 21
-71.4265
  0
LINE
  8
0
 10
-56.9882
 20
-71.4265
 11
-57.5514
 21
-70.0335
  0
LINE
  8
0
 10
-57.5514
 20
-70.0335
 11
-57.6072
 21
-69.9627
  0
LINE
  8
0
 10
-57.6072
 20
-69.9627
 11
-65.9942
 21
-59.3
  0
LINE
  8
0
 10
-65.9942
 20
-59.3
 11
-68.0817
 21
-56.6461
  0
LINE
  8
0
 10
-56.3254
 20
-43.2089
 11
-56.2882
 21
-42.8555
  0
LINE
  8
0
 10
-56.2882
 20
-42.8555
 11
-56.1784
 21
-42.5175
  0
LINE
  8
0
 10
-56.1784
 20
-42.5175
 11
-56.0007
 21
-42.2097
  0
LINE
  8
0
 10
-56.0007
 20
-42.2097
 11
-55.7629
 21
-41.9456
  0
LINE
  8
0
 10
-55.7629
 20
-41.9456
 11
-55.4754
 21
-41.7367
  0
LINE
  8
0
 10
-55.4754
 20
-41.7367
 11
-55.1507
 21
-41.5921
  0
LINE
  8
0
 10
-55.1507
 20
-41.5921
 11
-54.8031
 21
-41.5182
  0
LINE
  8
0
 10
-54.8031
 20
-41.5182
 11
-54.4477
 21
-41.5182
  0
LINE
  8
0
 10
-54.4477
 20
-41.5182
 11
-54.1
 21
-41.5921
  0
LINE
  8
0
 10
-54.1
 20
-41.5921
 11
-53.7754
 21
-41.7367
  0
LINE
  8
0
 10
-53.7754
 20
-41.7367
 11
-53.4878
 21
-41.9456
  0
LINE
  8
0
 10
-53.4878
 20
-41.9456
 11
-53.25
 21
-42.2097
  0
LINE
  8
0
 10
-53.25
 20
-42.2097
 11
-53.0723
 21
-42.5175
  0
LINE
  8
0
 10
-53.0723
 20
-42.5175
 11
-52.9625
 21
-42.8555
  0
LINE
  8
0
 10
-52.9625
 20
-42.8555
 11
-52.9254
 21
-43.2089
  0
LINE
  8
0
 10
-52.9254
 20
-43.2089
 11
-52.9625
 21
-43.5624
  0
LINE
  8
0
 10
-52.9625
 20
-43.5624
 11
-53.0723
 21
-43.9004
  0
LINE
  8
0
 10
-53.0723
 20
-43.9004
 11
-53.25
 21
-44.2081
  0
LINE
  8
0
 10
-53.25
 20
-44.2081
 11
-53.4878
 21
-44.4722
  0
LINE
  8
0
 10
-53.4878
 20
-44.4722
 11
-53.7754
 21
-44.6811
  0
LINE
  8
0
 10
-53.7754
 20
-44.6811
 11
-54.1
 21
-44.8257
  0
LINE
  8
0
 10
-54.1
 20
-44.8257
 11
-54.4477
 21
-44.8996
  0
LINE
  8
0
 10
-54.4477
 20
-44.8996
 11
-54.8031
 21
-44.8996
  0
LINE
  8
0
 10
-54.8031
 20
-44.8996
 11
-55.1507
 21
-44.8257
  0
LINE
  8
0
 10
-55.1507
 20
-44.8257
 11
-55.4754
 21
-44.6811
  0
LINE
  8
0
 10
-55.4754
 20
-44.6811
 11
-55.7629
 21
-44.4722
  0
LINE
  8
0
 10
-55.7629
 20
-44.4722
 11
-56.0007
 21
-44.2081
  0
LINE
  8
0
 10
-56.0007
 20
-44.2081
 11
-56.1784
 21
-43.9004
  0
LINE
  8
0
 10
-56.1784
 20
-43.9004
 11
-56.2882
 21
-43.5624
  0
LINE
  8
0
 10
-56.2882
 20
-43.5624
 11
-56.3254
 21
-43.2089
  0
LINE
  8
0
 10
-45.3254
 20
53.2089
 11
-45.2882
 21
53.5624
  0
LINE
  8
0
 10
-45.2882
 20
53.5624
 11
-45.1784
 21
53.9004
  0
LINE
  8
0
 10
-45.1784
 20
53.9004
 11
-45.0007
 21
54.2081
  0
LINE
  8
0
 10
-45.0007
 20
54.2081
 11
-44.7629
 21
54.4722
  0
LINE
  8
0
 10
-44.7629
 20
54.4722
 11
-44.4754
 21
54.6811
  0
LINE
  8
0
 10
-44.4754
 20
54.6811
 11
-44.1507
 21
54.8257
  0
LINE
  8
0
 10
-44.1507
 20
54.8257
 11
-43.8031
 21
54.8996
  0
LINE
  8
0
 10
-43.8031
 20
54.8996
 11
-43.4477
 21
54.8996
  0
LINE
  8
0
 10
-43.4477
 20
54.8996
 11
-43.1
 21
54.8257
  0
LINE
  8
0
 10
-43.1
 20
54.8257
 11
-42.7754
 21
54.6811
  0
LINE
  8
0
 10
-42.7754
 20
54.6811
 11
-42.4878
 21
54.4722
  0
LINE
  8
0
 10
-42.4878
 20
54.4722
 11
-42.25
 21
54.2081
  0
LINE
  8
0
 10
-42.25
 20
54.2081
 11
-42.0723
 21
53.9004
  0
LINE
  8
0
 10
-42.0723
 20
53.9004
 11
-41.9625
 21
53.5624
  0
LINE
  8
0
 10
-41.9625
 20
53.5624
 11
-41.9254
 21
53.2089
  0
LINE
  8
0
 10
-41.9254
 20
53.2089
 11
-41.9625
 21
52.8555
  0
LINE
  8
0
 10
-41.9625
 20
52.8555
 11
-42.0723
 21
52.5175
  0
LINE
  8
0
 10
-42.0723
 20
52.5175
 11
-42.25
 21
52.2097
  0
LINE
  8
0
 10
-42.25
 20
52.2097
 11
-42.4878
 21
51.9456
  0
LINE
  8
0
 10
-42.4878
 20
51.9456
 11
-42.7754
 21
51.7367
  0
LINE
  8
0
 10
-42.7754
 20
51.7367
 11
-43.1
 21
51.5921
  0
LINE
  8
0
 10
-43.1
 20
51.5921
 11
-43.4477
 21
51.5182
  0
LINE
  8
0
 10
-43.4477
 20
51.5182
 11
-43.8031
 21
51.5182
  0
LINE
  8
0
 10
-43.8031
 20
51.5182
 11
-44.1507
 21
51.5921
  0
LINE
  8
0
 10
-44.1507
 20
51.5921
 11
-44.4754
 21
51.7367
  0
LINE
  8
0
 10
-44.4754
 20
51.7367
 11
-44.7629
 21
51.9456
  0
LINE
  8
0
 10
-44.7629
 20
51.9456
 11
-45.0007
 21
52.2097
  0
LINE
  8
0
 10
-45.0007
 20
52.2097
 11
-45.1784
 21
52.5175
  0
LINE
  8
0
 10
-45.1784
 20
52.5175
 11
-45.2882
 21
52.8555
  0
LINE
  8
0
 10
-45.2882
 20
52.8555
 11
-45.3254
 21
53.2089
  0
LINE
  8
0
 10
-17.0731
 20
-73.4868
 11
-17.0359
 21
-73.1334
  0
LINE
  8
0
 10
-17.0359
 20
-73.1334
 11
-16.9261
 21
-72.7954
  0
LINE
  8
0
 10
-16.9261
 20
-72.7954
 11
-16.7484
 21
-72.4876
  0
LINE
  8
0
 10
-16.7484
 20
-72.4876
 11
-16.5106
 21
-72.2235
  0
LINE
  8
0
 10
-16.5106
 20
-72.2235
 11
-16.2231
 21
-72.0146
  0
LINE
  8
0
 10
-16.2231
 20
-72.0146
 11
-15.8984
 21
-71.8701
  0
LINE
  8
0
 10
-15.8984
 20
-71.8701
 11
-15.5508
 21
-71.7962
  0
LINE
  8
0
 10
-15.5508
 20
-71.7962
 11
-15.1954
 21
-71.7962
  0
LINE
  8
0
 10
-15.1954
 20
-71.7962
 11
-14.8478
 21
-71.8701
  0
LINE
  8
0
 10
-14.8478
 20
-71.8701
 11
-14.5231
 21
-72.0146
  0
LINE
  8
0
 10
-14.5231
 20
-72.0146
 11
-14.2356
 21
-72.2235
  0
LINE
  8
0
 10
-14.2356
 20
-72.2235
 11
-13.9978
 21
-72.4876
  0
LINE
  8
0
 10
-13.9978
 20
-72.4876
 11
-13.8201
 21
-72.7954
  0
LINE
  8
0
 10
-13.8201
 20
-72.7954
 11
-13.7102
 21
-73.1334
  0
LINE
  8
0
 10
-13.7102
 20
-73.1334
 11
-13.6731
 21
-73.4868
  0
LINE
  8
0
 10
-13.6731
 20
-73.4868
 11
-13.7102
 21
-73.8403
  0
LINE
  8
0
 10
-13.7102
 20
-73.8403
 11
-13.8201
 21
-74.1783
  0
LINE
  8
0
 10
-13.8201
 20
-74.1783
 11
-13.9978
 21
-74.4861
  0
LINE
  8
0
 10
-13.9978
 20
-74.4861
 11
-14.2356
 21
-74.7502
  0
LINE
  8
0
 10
-14.2356
 20
-74.7502
 11
-14.5231
 21
-74.9591
  0
LINE
  8
0
 10
-14.5231
 20
-74.9591
 11
-14.8478
 21
-75.1036
  0
LINE
  8
0
 10
-14.8478
 20
-75.1036
 11
-15.1954
 21
-75.1775
  0
LINE
  8
0
 10
-15.1954
 20
-75.1775
 11
-15.5508
 21
-75.1775
  0
LINE
  8
0
 10
-15.5508
 20
-75.1775
 11
-15.8984
 21
-75.1036
  0
LINE
  8
0
 10
-15.8984
 20
-75.1036
 11
-16.2231
 21
-74.9591
  0
LINE
  8
0
 10
-16.2231
 20
-74.9591
 11
-16.5106
 21
-74.7502
  0
LINE
  8
0
 10
-16.5106
 20
-74.7502
 11
-16.7484
 21
-74.4861
  0
LINE
  8
0
 10
-16.7484
 20
-74.4861
 11
-16.9261
 21
-74.1783
  0
LINE
  8
0
 10
-16.9261
 20
-74.1783
 11
-17.0359
 21
-73.8403
  0
LINE
  8
0
 10
-17.0359
 20
-73.8403
 11
-17.0731
 21
-73.4868
  0
LINE
  8
0
 10
76.1278
 20
-45.7089
 11
76.1649
 21
-45.3555
  0
LINE
  8
0
 10
76.1649
 20
-45.3555
 11
76.2747
 21
-45.0175
  0
LINE
  8
0
 10
76.2747
 20
-45.0175
 11
76.4524
 21
-44.7097
  0
LINE
  8
0
 10
76.4524
 20
-44.7097
 11
76.6902
 21
-44.4456
  0
LINE
  8
0
 10
76.6902
 20
-44.4456
 11
76.9778
 21
-44.2367
  0
LINE
  8
0
 10
76.9778
 20
-44.2367
 11
77.3024
 21
-44.0921
  0
LINE
  8
0
 10
77.3024
 20
-44.0921
 11
77.6501
 21
-44.0182
  0
LINE
  8
0
 10
77.6501
 20
-44.0182
 11
78.0055
 21
-44.0182
  0
LINE
  8
0
 10
78.0055
 20
-44.0182
 11
78.3531
 21
-44.0921
  0
LINE
  8
0
 10
78.3531
 20
-44.0921
 11
78.6778
 21
-44.2367
  0
LINE
  8
0
 10
78.6778
 20
-44.2367
 11
78.9653
 21
-44.4456
  0
LINE
  8
0
 10
78.9653
 20
-44.4456
 11
79.2031
 21
-44.7097
  0
LINE
  8
0
 10
79.2031
 20
-44.7097
 11
79.3808
 21
-45.0175
  0
LINE
  8
0
 10
79.3808
 20
-45.0175
 11
79.4906
 21
-45.3555
  0
LINE
  8
0
 10
79.4906
 20
-45.3555
 11
79.5278
 21
-45.7089
  0
LINE
  8
0
 10
79.5278
 20
-45.7089
 11
79.4906
 21
-46.0624
  0
LINE
  8
0
 10
79.4906
 20
-46.0624
 11
79.3808
 21
-46.4004
  0
LINE
  8
0
 10
79.3808
 20
-46.4004
 11
79.2031
 21
-46.7081
  0
LINE
  8
0
 10
79.2031
 20
-46.7081
 11
78.9653
 21
-46.9722
  0
LINE
  8
0
 10
78.9653
 20
-46.9722
 11
78.6778
 21
-47.1811
  0
LINE
  8
0
 10
78.6778
 20
-47.1811
 11
78.3531
 21
-47.3257
  0
LINE
  8
0
 10
78.3531
 20
-47.3257
 11
78.0055
 21
-47.3996
  0
LINE
  8
0
 10
78.0055
 20
-47.3996
 11
77.6501
 21
-47.3996
  0
LINE
  8
0
 10
77.6501
 20
-47.3996
 11
77.3024
 21
-47.3257
  0
LINE
  8
0
 10
77.3024
 20
-47.3257
 11
76.9778
 21
-47.1811
  0
LINE
  8
0
 10
76.9778
 20
-47.1811
 11
76.6902
 21
-46.9722
  0
LINE
  8
0
 10
76.6902
 20
-46.9722
 11
76.4524
 21
-46.7081
  0
LINE
  8
0
 10
76.4524
 20
-46.7081
 11
76.2747
 21
-46.4004
  0
LINE
  8
0
 10
76.2747
 20
-46.4004
 11
76.1649
 21
-46.0624
  0
LINE
  8
0
 10
76.1649
 20
-46.0624
 11
76.1278
 21
-45.7089
  0
LINE
  8
0
 10
76.1278
 20
40.7089
 11
76.1649
 21
41.0624
  0
LINE
  8
0
 10
76.1649
 20
41.0624
 11
76.2747
 21
41.4004
  0
LINE
  8
0
 10
76.2747
 20
41.4004
 11
76.4524
 21
41.7081
  0
LINE
  8
0
 10
76.4524
 20
41.7081
 11
76.6902
 21
41.9722
  0
LINE
  8
0
 10
76.6902
 20
41.9722
 11
76.9778
 21
42.1811
  0
LINE
  8
0
 10
76.9778
 20
42.1811
 11
77.3024
 21
42.3257
  0
LINE
  8
0
 10
77.3024
 20
42.3257
 11
77.6501
 21
42.3996
  0
LINE
  8
0
 10
77.6501
 20
42.3996
 11
78.0055
 21
42.3996
  0
LINE
  8
0
 10
78.0055
 20
42.3996
 11
78.3531
 21
42.3257
  0
LINE
  8
0
 10
78.3531
 20
42.3257
 11
78.6778
 21
42.1811
  0
LINE
  8
0
 10
78.6778
 20
42.1811
 11
78.9653
 21
41.9722
  0
LINE
  8
0
 10
78.9653
 20
41.9722
 11
79.2031
 21
41.7081
  0
LINE
  8
0
 10
79.2031
 20
41.7081
 11
79.3808
 21
41.4004
  0
LINE
  8
0
 10
79.3808
 20
41.4004
 11
79.4906
 21
41.0624
  0
LINE
  8
0
 10
79.4906
 20
41.0624
 11
79.5278
 21
40.7089
  0
LINE
  8
0
 10
79.5278
 20
40.7089
 11
79.4906
 21
40.3555
  0
LINE
  8
0
 10
79.4906
 20
40.3555
 11
79.3808
 21
40.0175
  0
LINE
  8
0
 10
79.3808
 20
40.0175
 11
79.2031
 21
39.7097
  0
LINE
  8
0
 10
79.2031
 20
39.7097
 11
78.9653
 21
39.4456
  0
LINE
  8
0
 10
78.9653
 20
39.4456
 11
78.6778
 21
39.2367
  0
LINE
  8
0
 10
78.6778
 20
39.2367
 11
78.3531
 21
39.0921
  0
LINE
  8
0
 10
78.3531
 20
39.0921
 11
78.0055
 21
39.0182
  0
LINE
  8
0
 10
78.0055
 20
39.0182
 11
77.6501
 21
39.0182
  0
LINE
  8
0
 10
77.6501
 20
39.0182
 11
77.3024
 21
39.0921
  0
LINE
  8
0
 10
77.3024
 20
39.0921
 11
76.9778
 21
39.2367
  0
LINE
  8
0
 10
76.9778
 20
39.2367
 11
76.6902
 21
39.4456
  0
LINE
  8
0
 10
76.6902
 20
39.4456
 11
76.4524
 21
39.7097
  0
LINE
  8
0
 10
76.4524
 20
39.7097
 11
76.2747
 21
40.0175
  0
LINE
  8
0
 10
76.2747
 20
40.0175
 11
76.1649
 21
40.3555
  0
LINE
  8
0
 10
76.1649
 20
40.3555
 11
76.1278
 21
40.7089
  0
ENDSEC
  0
SECTION
  2
OBJECTS
  0
DICTIONARY
  0
ENDSEC
  0
EOF
